<svg xmlns="http://www.w3.org/2000/svg" viewBox="0 0 24 24" role="img" aria-label="TikTok">
  <path fill="#25F4EE" d="M10.35 4.2v10.1a2.45 2.45 0 1 1-1.95-2.39V9.35a5.6 5.6 0 1 0 4.7 5.51V9.4a6.7 6.7 0 0 0 4 1.3V7.98a4.33 4.33 0 0 1-3.16-1.17A4.38 4.38 0 0 1 12.75 4.2z"/>
  <path fill="#FE2C55" d="M11.25 3v10.1a2.45 2.45 0 1 1-1.95-2.39V8.15a5.6 5.6 0 1 0 4.7 5.51V8.2a6.7 6.7 0 0 0 4 1.3V6.78a4.34 4.34 0 0 1-4.25-3.78z"/>
  <path fill="#111111" d="M10.9 3.4v10.25a2.05 2.05 0 1 1-1.63-2V9.32a5.18 5.18 0 1 0 4.35 5.1V8.86a6.26 6.26 0 0 0 3.75 1.22V7.56a4.75 4.75 0 0 1-4.54-4.16z"/>
</svg>
