<svg xmlns="http://www.w3.org/2000/svg" viewBox="0 0 24 24" role="img" aria-label="WhatsApp">
  <circle cx="12" cy="12" r="10" fill="#25D366"/>
  <path fill="#ffffff" d="M17.56 14.3c-.23-.12-1.35-.67-1.56-.74-.2-.07-.35-.12-.5.12-.14.23-.53.73-.66.87-.12.15-.24.17-.46.06-.23-.12-.94-.35-1.78-1.12-.66-.58-1.1-1.3-1.23-1.52-.13-.23-.02-.35.1-.46.1-.1.23-.24.34-.36.12-.12.15-.21.23-.35.08-.14.04-.27-.02-.39-.06-.12-.5-1.22-.7-1.67-.18-.44-.38-.38-.5-.39h-.43c-.15 0-.39.06-.6.29-.2.23-.78.76-.78 1.85s.8 2.14.92 2.29c.12.14 1.56 2.37 3.77 3.32.53.23.95.37 1.28.47.54.17 1.04.14 1.43.08.44-.07 1.35-.55 1.54-1.08.19-.53.19-.98.13-1.08-.05-.1-.2-.15-.43-.27z"/>
  <path fill="#ffffff" d="M12 5.3a6.67 6.67 0 0 0-5.7 10.14l-.37 2.2 2.25-.36A6.68 6.68 0 1 0 12 5.3m0-1.3a8 8 0 0 1 6.83 12.16A8 8 0 0 1 9.15 19L4.5 19.8l.78-4.57A8 8 0 0 1 12 4"/>
</svg>
